<svg width="131" height="28" viewBox="0 0 131 28" fill="none" xmlns="http://www.w3.org/2000/svg">
<path d="M13.3473 18.468C12.974 18.468 12.6006 18.328 12.3206 18.048L11.5623 17.2897C11.224 16.9514 11.224 16.3914 11.5623 16.053C11.9006 15.7147 12.4606 15.7147 12.799 16.053L13.359 16.613L15.2373 14.8864C15.5873 14.5597 16.1473 14.583 16.474 14.933C16.8006 15.283 16.7773 15.843 16.4273 16.1697L14.3506 18.083C14.059 18.3397 13.709 18.468 13.3473 18.468Z" fill="white"/>
<path d="M18.6672 26.5417H9.33392C3.94392 26.5417 2.94059 24.0334 2.68392 21.5951L1.80892 12.2501C1.68059 11.0251 1.64559 9.21672 2.85892 7.86339C3.90892 6.69672 5.64726 6.13672 8.16726 6.13672H19.8339C22.3656 6.13672 24.1039 6.70838 25.1422 7.86339C26.3556 9.21672 26.3206 11.0251 26.1922 12.2617L25.3172 21.5834C25.0606 24.0334 24.0572 26.5417 18.6672 26.5417ZM8.16726 7.87505C6.19559 7.87505 4.84226 8.26005 4.15392 9.03005C3.58226 9.66005 3.39559 10.6284 3.54726 12.0751L4.42226 21.4201C4.62059 23.2634 5.12226 24.7917 9.33392 24.7917H18.6672C22.8672 24.7917 23.3806 23.2634 23.5789 21.4084L24.4539 12.0867C24.6056 10.6284 24.4189 9.66005 23.8472 9.03005C23.1589 8.26005 21.8056 7.87505 19.8339 7.87505H8.16726Z" fill="white"/>
<path d="M18.6673 7.87467C18.189 7.87467 17.7923 7.47801 17.7923 6.99967V6.06634C17.7923 3.98967 17.7923 3.20801 14.934 3.20801H13.0673C10.209 3.20801 10.209 3.98967 10.209 6.06634V6.99967C10.209 7.47801 9.81232 7.87467 9.33398 7.87467C8.85565 7.87467 8.45898 7.47801 8.45898 6.99967V6.06634C8.45898 4.01301 8.45898 1.45801 13.0673 1.45801H14.934C19.5423 1.45801 19.5423 4.01301 19.5423 6.06634V6.99967C19.5423 7.47801 19.1456 7.87467 18.6673 7.87467Z" fill="white"/>
<path d="M18.6789 16.7881C18.2822 16.7881 17.9322 16.5198 17.8272 16.1231C17.7106 15.6564 17.9906 15.1781 18.4572 15.0614C20.7322 14.4898 22.8439 13.4981 24.7339 12.1214C25.1189 11.8414 25.6672 11.9231 25.9589 12.3198C26.2389 12.7048 26.1572 13.2531 25.7606 13.5448C23.6839 15.0498 21.3739 16.1348 18.8772 16.7648C18.8189 16.7764 18.7489 16.7881 18.6789 16.7881Z" fill="white"/>
<path d="M9.33418 16.8233C9.26418 16.8233 9.19418 16.8117 9.12418 16.8C6.77918 16.2283 4.57418 15.2367 2.55584 13.86C2.15918 13.5917 2.05418 13.0433 2.32251 12.6467C2.59084 12.25 3.13918 12.145 3.53584 12.4133C5.37918 13.6733 7.38584 14.5717 9.53251 15.0967C9.99918 15.2133 10.2908 15.68 10.1742 16.1583C10.0925 16.555 9.73084 16.8233 9.33418 16.8233Z" fill="white"/>
<path d="M42.36 21.26C41.7467 21.26 41.2 21.1667 40.72 20.98C40.2533 20.7933 39.8467 20.5467 39.5 20.24C39.1533 19.9333 38.8667 19.6 38.64 19.24C38.4267 18.88 38.2667 18.5267 38.16 18.18L40.06 17.36C40.3 17.9067 40.6067 18.34 40.98 18.66C41.3667 18.98 41.8333 19.14 42.38 19.14C42.82 19.14 43.2333 19.04 43.62 18.84C44.02 18.6267 44.3467 18.2933 44.6 17.84C44.8533 17.3867 44.98 16.7867 44.98 16.04V7H47.3V16.78C47.3 17.5 47.1667 18.14 46.9 18.7C46.6467 19.2467 46.2933 19.7133 45.84 20.1C45.3867 20.4867 44.86 20.78 44.26 20.98C43.66 21.1667 43.0267 21.26 42.36 21.26ZM54.5822 21.24C53.5822 21.24 52.6889 21.02 51.9022 20.58C51.1289 20.1267 50.5222 19.5067 50.0822 18.72C49.6422 17.9333 49.4222 17.0267 49.4222 16C49.4222 14.9733 49.6355 14.0667 50.0622 13.28C50.5022 12.4933 51.1089 11.88 51.8822 11.44C52.6555 10.9867 53.5422 10.76 54.5422 10.76C55.5422 10.76 56.4289 10.9867 57.2022 11.44C57.9755 11.88 58.5755 12.4933 59.0022 13.28C59.4422 14.0667 59.6622 14.9733 59.6622 16C59.6622 17.0267 59.4489 17.9333 59.0222 18.72C58.5955 19.5067 57.9955 20.1267 57.2222 20.58C56.4489 21.02 55.5689 21.24 54.5822 21.24ZM54.5822 19.18C55.1289 19.18 55.6155 19.0467 56.0422 18.78C56.4689 18.5 56.8022 18.1267 57.0422 17.66C57.2822 17.18 57.4022 16.6267 57.4022 16C57.4022 15.3733 57.2755 14.8267 57.0222 14.36C56.7822 13.88 56.4489 13.5067 56.0222 13.24C55.5955 12.96 55.1022 12.82 54.5422 12.82C53.9822 12.82 53.4889 12.9533 53.0622 13.22C52.6355 13.4867 52.3022 13.86 52.0622 14.34C51.8222 14.82 51.7022 15.3733 51.7022 16C51.7022 16.6267 51.8222 17.18 52.0622 17.66C52.3155 18.1267 52.6555 18.5 53.0822 18.78C53.5222 19.0467 54.0222 19.18 54.5822 19.18ZM61.6033 21V7H63.8433V19.14L63.7233 21H61.6033ZM67.0033 21.24C66.1633 21.24 65.4366 21.0267 64.8233 20.6C64.2233 20.16 63.7633 19.5467 63.4433 18.76C63.1233 17.9733 62.9633 17.0533 62.9633 16C62.9633 14.9333 63.1233 14.0133 63.4433 13.24C63.7633 12.4533 64.2233 11.8467 64.8233 11.42C65.4366 10.98 66.1633 10.76 67.0033 10.76C67.9099 10.76 68.6966 10.98 69.3633 11.42C70.0433 11.8467 70.5699 12.4533 70.9433 13.24C71.3299 14.0133 71.5233 14.9333 71.5233 16C71.5233 17.0533 71.3299 17.9733 70.9433 18.76C70.5699 19.5467 70.0433 20.16 69.3633 20.6C68.6966 21.0267 67.9099 21.24 67.0033 21.24ZM66.4433 19.2C66.9766 19.2 67.4499 19.0667 67.8633 18.8C68.2766 18.52 68.6033 18.14 68.8433 17.66C69.0966 17.18 69.2233 16.6267 69.2233 16C69.2233 15.3733 69.1033 14.82 68.8633 14.34C68.6366 13.86 68.3166 13.4867 67.9033 13.22C67.4899 12.9533 67.0099 12.82 66.4633 12.82C65.9566 12.82 65.5033 12.9533 65.1033 13.22C64.7033 13.4867 64.3899 13.86 64.1633 14.34C63.9499 14.82 63.8433 15.3733 63.8433 16C63.8433 16.6267 63.9499 17.18 64.1633 17.66C64.3899 18.14 64.6966 18.52 65.0833 18.8C65.4833 19.0667 65.9366 19.2 66.4433 19.2ZM80.7834 16.16V14.02H83.8834C84.5501 14.02 85.0968 13.7933 85.5234 13.34C85.9501 12.8867 86.1634 12.3 86.1634 11.58C86.1634 11.0867 86.0501 10.66 85.8234 10.3C85.6101 9.92667 85.3101 9.63333 84.9234 9.42C84.5368 9.20667 84.0901 9.10667 83.5834 9.12H80.7834V7L83.6234 6.98C84.5834 6.98 85.4301 7.18 86.1634 7.58C86.8968 7.96667 87.4701 8.50667 87.8834 9.2C88.2968 9.88 88.5034 10.6733 88.5034 11.58C88.5034 12.46 88.3101 13.2467 87.9234 13.94C87.5368 14.6333 86.9968 15.18 86.3034 15.58C85.6234 15.9667 84.8301 16.16 83.9234 16.16H80.7834ZM78.6834 21V7H81.0034V21H78.6834ZM94.5431 21.24C93.5431 21.24 92.6498 21.02 91.8631 20.58C91.0898 20.1267 90.4831 19.5067 90.0431 18.72C89.6031 17.9333 89.3831 17.0267 89.3831 16C89.3831 14.9733 89.5965 14.0667 90.0231 13.28C90.4631 12.4933 91.0698 11.88 91.8431 11.44C92.6165 10.9867 93.5031 10.76 94.5031 10.76C95.5031 10.76 96.3898 10.9867 97.1631 11.44C97.9365 11.88 98.5365 12.4933 98.9631 13.28C99.4031 14.0667 99.6231 14.9733 99.6231 16C99.6231 17.0267 99.4098 17.9333 98.9831 18.72C98.5565 19.5067 97.9565 20.1267 97.1831 20.58C96.4098 21.02 95.5298 21.24 94.5431 21.24ZM94.5431 19.18C95.0898 19.18 95.5765 19.0467 96.0031 18.78C96.4298 18.5 96.7631 18.1267 97.0031 17.66C97.2431 17.18 97.3631 16.6267 97.3631 16C97.3631 15.3733 97.2365 14.8267 96.9831 14.36C96.7431 13.88 96.4098 13.5067 95.9831 13.24C95.5565 12.96 95.0631 12.82 94.5031 12.82C93.9431 12.82 93.4498 12.9533 93.0231 13.22C92.5965 13.4867 92.2631 13.86 92.0231 14.34C91.7831 14.82 91.6631 15.3733 91.6631 16C91.6631 16.6267 91.7831 17.18 92.0231 17.66C92.2765 18.1267 92.6165 18.5 93.0431 18.78C93.4831 19.0467 93.9831 19.18 94.5431 19.18ZM103.044 15.68C103.044 14.6 103.251 13.7133 103.664 13.02C104.078 12.3267 104.611 11.8133 105.264 11.48C105.931 11.1333 106.624 10.96 107.344 10.96V13.1C106.731 13.1 106.151 13.1867 105.604 13.36C105.071 13.52 104.638 13.7867 104.304 14.16C103.971 14.5333 103.804 15.0267 103.804 15.64L103.044 15.68ZM101.564 21V11H103.804V21H101.564ZM112.81 21.24C111.757 21.24 110.95 20.98 110.39 20.46C109.843 19.9267 109.57 19.1667 109.57 18.18V7.88H111.79V17.76C111.79 18.2267 111.897 18.58 112.11 18.82C112.337 19.06 112.663 19.18 113.09 19.18C113.223 19.18 113.37 19.1533 113.53 19.1C113.69 19.0467 113.87 18.9467 114.07 18.8L114.89 20.5C114.543 20.74 114.197 20.92 113.85 21.04C113.503 21.1733 113.157 21.24 112.81 21.24ZM107.91 12.92V11H114.49V12.92H107.91ZM122.605 21L122.505 19.12V15.86C122.505 15.18 122.431 14.6133 122.285 14.16C122.138 13.7067 121.905 13.36 121.585 13.12C121.278 12.88 120.871 12.76 120.365 12.76C119.898 12.76 119.485 12.86 119.125 13.06C118.765 13.26 118.465 13.5667 118.225 13.98L116.185 13.26C116.411 12.82 116.705 12.4067 117.065 12.02C117.425 11.6333 117.878 11.3267 118.425 11.1C118.985 10.8733 119.645 10.76 120.405 10.76C121.378 10.76 122.185 10.94 122.825 11.3C123.478 11.66 123.965 12.1933 124.285 12.9C124.605 13.6067 124.765 14.48 124.765 15.52L124.705 21H122.605ZM119.765 21.24C118.565 21.24 117.631 20.9733 116.965 20.44C116.311 19.9067 115.985 19.1533 115.985 18.18C115.985 17.14 116.331 16.3467 117.025 15.8C117.731 15.2533 118.711 14.98 119.965 14.98H122.645V16.7H120.685C119.791 16.7 119.165 16.8267 118.805 17.08C118.445 17.32 118.265 17.6667 118.265 18.12C118.265 18.5067 118.418 18.8133 118.725 19.04C119.045 19.2533 119.485 19.36 120.045 19.36C120.538 19.36 120.965 19.2467 121.325 19.02C121.698 18.78 121.985 18.4733 122.185 18.1C122.398 17.7133 122.505 17.3 122.505 16.86H123.325C123.325 18.22 123.031 19.2933 122.445 20.08C121.871 20.8533 120.978 21.24 119.765 21.24ZM127.033 21V7H129.273V21H127.033Z" fill="white"/>
</svg>
